# xmcd
# Copyright (C) 1995-1998 Ti Kan
#
# Track frame offsets:
#       150
#       12080
#       26790
#       39429
#       51909
#       63991
#       76714
#       92208
#       104396
#       114677
#       129581
#       144439
#
# Disc length: 2078 seconds
#
# Revision: 0
# Processed by: cddbd v1.5.1PL2 Copyright (c) Steve Scherf et al.
# Submitted via: CD-Transfer v1.0
#
DISCID=9a081c0c
DTITLE=Fantje Z Vasi - 
DYEAR=06
DGENRE=
TTITLE0=Tolar Za Dekle
TTITLE1=Bela, Najlepsa Si Vas
TTITLE2=V Hribih
TTITLE3=Pustni Cas
TTITLE4=Lubez`n Je Urzah Za Use
TTITLE5=Na Pikniku
TTITLE6=Tebi Mama
TTITLE7=Antonova Polka
TTITLE8=Petelincka Bom Vprasal
TTITLE9=Cez Jezersko
TTITLE10=Ej, Tisti Maj
TTITLE11=Poroka Bo Resila Vse
EXTD=
EXTT0=
EXTT1=
EXTT2=
EXTT3=
EXTT4=
EXTT5=
EXTT6=
EXTT7=
EXTT8=
EXTT9=
EXTT10=
EXTT11=
PLAYORDER=
